<mxfile host="app.diagrams.net" agent="Mozilla/5.0 (Windows NT 10.0; Win64; x64) AppleWebKit/537.36 (KHTML, like Gecko) Chrome/131.0.0.0 Safari/537.36" version="25.0.3">
  <diagram name="Page-1" id="ktnvQnF--l8rirKvJ9o0">
    <mxGraphModel dx="124" dy="77" grid="1" gridSize="10" guides="1" tooltips="1" connect="1" arrows="1" fold="1" page="1" pageScale="1" pageWidth="827" pageHeight="1169" math="0" shadow="0">
      <root>
        <mxCell id="0" />
        <mxCell id="1" parent="0" />
        <mxCell id="BI_YX7zPSf-0d-1iwC2x-1" value="Parameter" style="swimlane;fontStyle=1;align=center;verticalAlign=top;childLayout=stackLayout;horizontal=1;startSize=26;horizontalStack=0;resizeParent=1;resizeParentMax=0;resizeLast=0;collapsible=1;marginBottom=0;whiteSpace=wrap;html=1;" vertex="1" parent="1">
          <mxGeometry x="260" y="200" width="180" height="60" as="geometry" />
        </mxCell>
        <mxCell id="BI_YX7zPSf-0d-1iwC2x-3" value="" style="line;strokeWidth=1;fillColor=none;align=left;verticalAlign=middle;spacingTop=-1;spacingLeft=3;spacingRight=3;rotatable=0;labelPosition=right;points=[];portConstraint=eastwest;strokeColor=inherit;" vertex="1" parent="BI_YX7zPSf-0d-1iwC2x-1">
          <mxGeometry y="26" width="180" height="8" as="geometry" />
        </mxCell>
        <mxCell id="BI_YX7zPSf-0d-1iwC2x-4" value="+ set_data(Tensorable): None" style="text;strokeColor=none;fillColor=none;align=left;verticalAlign=top;spacingLeft=4;spacingRight=4;overflow=hidden;rotatable=0;points=[[0,0.5],[1,0.5]];portConstraint=eastwest;whiteSpace=wrap;html=1;" vertex="1" parent="BI_YX7zPSf-0d-1iwC2x-1">
          <mxGeometry y="34" width="180" height="26" as="geometry" />
        </mxCell>
        <mxCell id="BI_YX7zPSf-0d-1iwC2x-5" value="&lt;b&gt;Tensor&lt;/b&gt;" style="html=1;whiteSpace=wrap;" vertex="1" parent="1">
          <mxGeometry x="295" y="90" width="110" height="50" as="geometry" />
        </mxCell>
        <mxCell id="BI_YX7zPSf-0d-1iwC2x-6" value="" style="endArrow=open;endFill=1;endSize=12;html=1;rounded=0;entryX=0.5;entryY=1;entryDx=0;entryDy=0;exitX=0.5;exitY=0;exitDx=0;exitDy=0;" edge="1" parent="1" source="BI_YX7zPSf-0d-1iwC2x-1" target="BI_YX7zPSf-0d-1iwC2x-5">
          <mxGeometry width="160" relative="1" as="geometry">
            <mxPoint x="320" y="160" as="sourcePoint" />
            <mxPoint x="430" y="240" as="targetPoint" />
          </mxGeometry>
        </mxCell>
        <mxCell id="BI_YX7zPSf-0d-1iwC2x-7" value="Module" style="swimlane;fontStyle=1;align=center;verticalAlign=top;childLayout=stackLayout;horizontal=1;startSize=26;horizontalStack=0;resizeParent=1;resizeParentMax=0;resizeLast=0;collapsible=1;marginBottom=0;whiteSpace=wrap;html=1;" vertex="1" parent="1">
          <mxGeometry x="525" y="200" width="190" height="110" as="geometry" />
        </mxCell>
        <mxCell id="BI_YX7zPSf-0d-1iwC2x-8" value="+ params: list[Parameter | Tensor]" style="text;strokeColor=none;fillColor=none;align=left;verticalAlign=top;spacingLeft=4;spacingRight=4;overflow=hidden;rotatable=0;points=[[0,0.5],[1,0.5]];portConstraint=eastwest;whiteSpace=wrap;html=1;" vertex="1" parent="BI_YX7zPSf-0d-1iwC2x-7">
          <mxGeometry y="26" width="190" height="26" as="geometry" />
        </mxCell>
        <mxCell id="BI_YX7zPSf-0d-1iwC2x-9" value="" style="line;strokeWidth=1;fillColor=none;align=left;verticalAlign=middle;spacingTop=-1;spacingLeft=3;spacingRight=3;rotatable=0;labelPosition=right;points=[];portConstraint=eastwest;strokeColor=inherit;" vertex="1" parent="BI_YX7zPSf-0d-1iwC2x-7">
          <mxGeometry y="52" width="190" height="8" as="geometry" />
        </mxCell>
        <mxCell id="BI_YX7zPSf-0d-1iwC2x-10" value="&lt;div&gt;+ forward(Tensorable): Tensor&lt;/div&gt;+ save(str): None&lt;div&gt;&lt;u&gt;+ load(str): None&lt;/u&gt;&lt;/div&gt;&lt;div&gt;&lt;br&gt;&lt;/div&gt;" style="text;strokeColor=none;fillColor=none;align=left;verticalAlign=top;spacingLeft=4;spacingRight=4;overflow=hidden;rotatable=0;points=[[0,0.5],[1,0.5]];portConstraint=eastwest;whiteSpace=wrap;html=1;" vertex="1" parent="BI_YX7zPSf-0d-1iwC2x-7">
          <mxGeometry y="60" width="190" height="50" as="geometry" />
        </mxCell>
        <mxCell id="BI_YX7zPSf-0d-1iwC2x-11" value="Abstract Base Class&lt;div&gt;(ABC)&lt;/div&gt;" style="html=1;whiteSpace=wrap;fontStyle=1" vertex="1" parent="1">
          <mxGeometry x="555" y="90" width="130" height="50" as="geometry" />
        </mxCell>
        <mxCell id="BI_YX7zPSf-0d-1iwC2x-12" value="" style="endArrow=open;endFill=1;endSize=12;html=1;rounded=0;entryX=0.5;entryY=1;entryDx=0;entryDy=0;exitX=0.5;exitY=0;exitDx=0;exitDy=0;" edge="1" parent="1">
          <mxGeometry width="160" relative="1" as="geometry">
            <mxPoint x="619.5" y="200" as="sourcePoint" />
            <mxPoint x="619.5" y="140" as="targetPoint" />
          </mxGeometry>
        </mxCell>
        <mxCell id="BI_YX7zPSf-0d-1iwC2x-13" value="" style="endArrow=diamondThin;endFill=1;endSize=24;html=1;rounded=0;entryX=1;entryY=0.25;entryDx=0;entryDy=0;exitX=0.002;exitY=0.152;exitDx=0;exitDy=0;exitPerimeter=0;" edge="1" parent="1" source="BI_YX7zPSf-0d-1iwC2x-7" target="BI_YX7zPSf-0d-1iwC2x-1">
          <mxGeometry width="160" relative="1" as="geometry">
            <mxPoint x="480" y="200" as="sourcePoint" />
            <mxPoint x="600" y="120" as="targetPoint" />
          </mxGeometry>
        </mxCell>
        <mxCell id="BI_YX7zPSf-0d-1iwC2x-14" value="" style="endArrow=open;endFill=1;endSize=12;html=1;rounded=0;entryX=1;entryY=0.5;entryDx=0;entryDy=0;exitX=0;exitY=0.5;exitDx=0;exitDy=0;" edge="1" parent="1" source="BI_YX7zPSf-0d-1iwC2x-15" target="BI_YX7zPSf-0d-1iwC2x-11">
          <mxGeometry width="160" relative="1" as="geometry">
            <mxPoint x="780" y="115" as="sourcePoint" />
            <mxPoint x="940" y="150" as="targetPoint" />
          </mxGeometry>
        </mxCell>
        <mxCell id="BI_YX7zPSf-0d-1iwC2x-15" value="Sequence" style="html=1;whiteSpace=wrap;fontStyle=1" vertex="1" parent="1">
          <mxGeometry x="790" y="90" width="130" height="50" as="geometry" />
        </mxCell>
        <mxCell id="BI_YX7zPSf-0d-1iwC2x-18" value="" style="endArrow=open;endFill=1;endSize=12;html=1;rounded=0;entryX=0.5;entryY=1;entryDx=0;entryDy=0;" edge="1" parent="1" target="BI_YX7zPSf-0d-1iwC2x-15">
          <mxGeometry width="160" relative="1" as="geometry">
            <mxPoint x="855" y="200" as="sourcePoint" />
            <mxPoint x="695" y="125" as="targetPoint" />
          </mxGeometry>
        </mxCell>
        <mxCell id="BI_YX7zPSf-0d-1iwC2x-19" value="ModuleList" style="swimlane;fontStyle=1;align=center;verticalAlign=top;childLayout=stackLayout;horizontal=1;startSize=26;horizontalStack=0;resizeParent=1;resizeParentMax=0;resizeLast=0;collapsible=1;marginBottom=0;whiteSpace=wrap;html=1;" vertex="1" parent="1">
          <mxGeometry x="760" y="200" width="190" height="60" as="geometry" />
        </mxCell>
        <mxCell id="BI_YX7zPSf-0d-1iwC2x-20" value="+ params: list[Parameter | Tensor]" style="text;strokeColor=none;fillColor=none;align=left;verticalAlign=top;spacingLeft=4;spacingRight=4;overflow=hidden;rotatable=0;points=[[0,0.5],[1,0.5]];portConstraint=eastwest;whiteSpace=wrap;html=1;" vertex="1" parent="BI_YX7zPSf-0d-1iwC2x-19">
          <mxGeometry y="26" width="190" height="26" as="geometry" />
        </mxCell>
        <mxCell id="BI_YX7zPSf-0d-1iwC2x-21" value="" style="line;strokeWidth=1;fillColor=none;align=left;verticalAlign=middle;spacingTop=-1;spacingLeft=3;spacingRight=3;rotatable=0;labelPosition=right;points=[];portConstraint=eastwest;strokeColor=inherit;" vertex="1" parent="BI_YX7zPSf-0d-1iwC2x-19">
          <mxGeometry y="52" width="190" height="8" as="geometry" />
        </mxCell>
        <mxCell id="BI_YX7zPSf-0d-1iwC2x-23" value="" style="endArrow=open;endFill=1;endSize=12;html=1;rounded=0;exitX=0;exitY=0.25;exitDx=0;exitDy=0;" edge="1" parent="1" source="BI_YX7zPSf-0d-1iwC2x-19">
          <mxGeometry width="160" relative="1" as="geometry">
            <mxPoint x="865" y="210" as="sourcePoint" />
            <mxPoint x="715" y="215" as="targetPoint" />
          </mxGeometry>
        </mxCell>
        <mxCell id="BI_YX7zPSf-0d-1iwC2x-24" value="" style="endArrow=open;endFill=1;endSize=12;html=1;rounded=0;entryX=0.503;entryY=0.995;entryDx=0;entryDy=0;entryPerimeter=0;" edge="1" parent="1" target="BI_YX7zPSf-0d-1iwC2x-10">
          <mxGeometry width="160" relative="1" as="geometry">
            <mxPoint x="621" y="360" as="sourcePoint" />
            <mxPoint x="740" y="340" as="targetPoint" />
          </mxGeometry>
        </mxCell>
        <mxCell id="BI_YX7zPSf-0d-1iwC2x-25" value="" style="endArrow=none;html=1;rounded=0;" edge="1" parent="1">
          <mxGeometry width="50" height="50" relative="1" as="geometry">
            <mxPoint x="360" y="360" as="sourcePoint" />
            <mxPoint x="880" y="360" as="targetPoint" />
          </mxGeometry>
        </mxCell>
        <mxCell id="BI_YX7zPSf-0d-1iwC2x-40" value="Dense" style="html=1;whiteSpace=wrap;fontStyle=1" vertex="1" parent="1">
          <mxGeometry x="304" y="450" width="110" height="50" as="geometry" />
        </mxCell>
        <mxCell id="BI_YX7zPSf-0d-1iwC2x-41" value="Conv2D" style="html=1;whiteSpace=wrap;fontStyle=1" vertex="1" parent="1">
          <mxGeometry x="430" y="450" width="115" height="50" as="geometry" />
        </mxCell>
        <mxCell id="BI_YX7zPSf-0d-1iwC2x-42" value="Reshape" style="html=1;whiteSpace=wrap;fontStyle=1" vertex="1" parent="1">
          <mxGeometry x="565" y="450" width="110" height="50" as="geometry" />
        </mxCell>
        <mxCell id="BI_YX7zPSf-0d-1iwC2x-43" value="Tanh" style="html=1;whiteSpace=wrap;fontStyle=1" vertex="1" parent="1">
          <mxGeometry x="700" y="450" width="110" height="50" as="geometry" />
        </mxCell>
        <mxCell id="BI_YX7zPSf-0d-1iwC2x-44" value="Sigmoid" style="html=1;whiteSpace=wrap;fontStyle=1" vertex="1" parent="1">
          <mxGeometry x="827" y="450" width="110" height="50" as="geometry" />
        </mxCell>
        <mxCell id="BI_YX7zPSf-0d-1iwC2x-45" value="Softmax" style="html=1;whiteSpace=wrap;fontStyle=1" vertex="1" parent="1">
          <mxGeometry x="369" y="550" width="110" height="50" as="geometry" />
        </mxCell>
        <mxCell id="BI_YX7zPSf-0d-1iwC2x-46" value="ReLU" style="html=1;whiteSpace=wrap;fontStyle=1" vertex="1" parent="1">
          <mxGeometry x="502" y="550" width="110" height="50" as="geometry" />
        </mxCell>
        <mxCell id="BI_YX7zPSf-0d-1iwC2x-47" value="MSE" style="html=1;whiteSpace=wrap;fontStyle=1" vertex="1" parent="1">
          <mxGeometry x="634" y="550" width="110" height="50" as="geometry" />
        </mxCell>
        <mxCell id="BI_YX7zPSf-0d-1iwC2x-48" value="AlphaLoss" style="html=1;whiteSpace=wrap;fontStyle=1" vertex="1" parent="1">
          <mxGeometry x="766" y="550" width="110" height="50" as="geometry" />
        </mxCell>
        <mxCell id="BI_YX7zPSf-0d-1iwC2x-50" value="" style="endArrow=none;html=1;rounded=0;exitX=0.5;exitY=0;exitDx=0;exitDy=0;" edge="1" parent="1" source="BI_YX7zPSf-0d-1iwC2x-40">
          <mxGeometry width="50" height="50" relative="1" as="geometry">
            <mxPoint x="350" y="440" as="sourcePoint" />
            <mxPoint x="360" y="360" as="targetPoint" />
          </mxGeometry>
        </mxCell>
        <mxCell id="BI_YX7zPSf-0d-1iwC2x-51" value="" style="endArrow=none;html=1;rounded=0;exitX=0.5;exitY=0;exitDx=0;exitDy=0;" edge="1" parent="1">
          <mxGeometry width="50" height="50" relative="1" as="geometry">
            <mxPoint x="487.08" y="450" as="sourcePoint" />
            <mxPoint x="487.08" y="360" as="targetPoint" />
          </mxGeometry>
        </mxCell>
        <mxCell id="BI_YX7zPSf-0d-1iwC2x-52" value="" style="endArrow=none;html=1;rounded=0;exitX=0.5;exitY=0;exitDx=0;exitDy=0;" edge="1" parent="1">
          <mxGeometry width="50" height="50" relative="1" as="geometry">
            <mxPoint x="621" y="450" as="sourcePoint" />
            <mxPoint x="621" y="360" as="targetPoint" />
          </mxGeometry>
        </mxCell>
        <mxCell id="BI_YX7zPSf-0d-1iwC2x-53" value="" style="endArrow=none;html=1;rounded=0;exitX=0.5;exitY=0;exitDx=0;exitDy=0;" edge="1" parent="1">
          <mxGeometry width="50" height="50" relative="1" as="geometry">
            <mxPoint x="754.41" y="450" as="sourcePoint" />
            <mxPoint x="754.41" y="360" as="targetPoint" />
          </mxGeometry>
        </mxCell>
        <mxCell id="BI_YX7zPSf-0d-1iwC2x-54" value="" style="endArrow=none;html=1;rounded=0;exitX=0.5;exitY=0;exitDx=0;exitDy=0;" edge="1" parent="1">
          <mxGeometry width="50" height="50" relative="1" as="geometry">
            <mxPoint x="880" y="450" as="sourcePoint" />
            <mxPoint x="880" y="360" as="targetPoint" />
          </mxGeometry>
        </mxCell>
        <mxCell id="BI_YX7zPSf-0d-1iwC2x-56" value="" style="endArrow=none;html=1;rounded=0;exitX=0.5;exitY=0;exitDx=0;exitDy=0;" edge="1" parent="1">
          <mxGeometry width="50" height="50" relative="1" as="geometry">
            <mxPoint x="819" y="550" as="sourcePoint" />
            <mxPoint x="818" y="360" as="targetPoint" />
          </mxGeometry>
        </mxCell>
        <mxCell id="BI_YX7zPSf-0d-1iwC2x-57" value="" style="endArrow=none;html=1;rounded=0;exitX=0.5;exitY=0;exitDx=0;exitDy=0;" edge="1" parent="1">
          <mxGeometry width="50" height="50" relative="1" as="geometry">
            <mxPoint x="689" y="551" as="sourcePoint" />
            <mxPoint x="688" y="361" as="targetPoint" />
          </mxGeometry>
        </mxCell>
        <mxCell id="BI_YX7zPSf-0d-1iwC2x-58" value="" style="endArrow=none;html=1;rounded=0;exitX=0.5;exitY=0;exitDx=0;exitDy=0;" edge="1" parent="1">
          <mxGeometry width="50" height="50" relative="1" as="geometry">
            <mxPoint x="556" y="550" as="sourcePoint" />
            <mxPoint x="555" y="360" as="targetPoint" />
          </mxGeometry>
        </mxCell>
        <mxCell id="BI_YX7zPSf-0d-1iwC2x-59" value="" style="endArrow=none;html=1;rounded=0;exitX=0.5;exitY=0;exitDx=0;exitDy=0;" edge="1" parent="1">
          <mxGeometry width="50" height="50" relative="1" as="geometry">
            <mxPoint x="423" y="550" as="sourcePoint" />
            <mxPoint x="422" y="360" as="targetPoint" />
          </mxGeometry>
        </mxCell>
      </root>
    </mxGraphModel>
  </diagram>
</mxfile>
